<?xml version="1.0" ?><svg data-name="Layer 1" id="Layer_1" viewBox="0 0 508.33 508.36" xmlns="http://www.w3.org/2000/svg"><defs><style>.cls-1{fill:#d32323;fill-rule:evenodd;}.cls-2{fill:#fff;}</style></defs><title/><path class="cls-1" d="M485,29.72c11.45,15.13,16.61,40.21,19.15,70.7,3.36,45.5,4.71,100.1,6,156.52-1.67,57.47-2.35,115.43-6,156.52-2.88,31.54-9,52.66-19.22,65.47-13,12.79-37.94,23.59-73.5,26.15-43.25,3.69-96.61,3.65-155.48,5.1-65.44-1.12-109.82-.64-156.38-5.08-36.32-2.52-60.08-13.19-74.7-26.07-10.83-14.54-14-30-17-66.24-3.75-41.85-4.58-98.56-6-155.54C4,200.57,4.13,143.44,7.9,100.74,10.43,67.05,14.42,44.4,24.65,30,39,17.77,63.48,11.69,100,8.69c50-5.85,102.06-7,155.88-6.87,55.39.09,108.56,1.67,156,6.34,32,2.56,58.48,8.07,73.07,21.56Z" transform="translate(-1.83 -1.82)"/><g data-name="&lt;Group&gt;" id="_Group_"><path class="cls-2" d="M139,305.75a13.2,13.2,0,0,0,11.12,7.42l.73,0c2.51,0,6.38-1.19,48.17-14.62,14.47-4.62,18.38-5.87,19.54-6.26,6-1.54,10.21-7.05,10.62-14s-3.46-13.45-9.48-15.71c-9.29-3.78-12.56-5.12-13.87-5.58l0,0c-49.79-20.54-50-20.55-52.89-20.58-4.65-.21-8.89,2.2-11.66,6.56-5.23,8.41-7.24,33.07-5.54,49.52C136.47,298.48,137.56,302.95,139,305.75Z" data-name="&lt;Path&gt;" id="_Path_" transform="translate(-1.83 -1.82)"/><path class="cls-2" d="M243.65,305.07c-6.65-2.57-13.83-.88-17.83,4.14,0,0-6.52,7.74-8.84,10.48l-.84,1c-34.85,40.9-35,41.25-35.91,44a11.91,11.91,0,0,0-.7,5.48,14,14,0,0,0,3.33,7.57c7.72,9.18,41.17,21.9,56,21.9a18.2,18.2,0,0,0,3-.22c5.11-.93,8.84-3.86,10.52-8.34.93-2.7,1-2.92,1.14-51,0,0,.11-19.93.12-20.53C254.09,313.24,250.15,307.57,243.65,305.07Z" data-name="&lt;Path&gt;" id="_Path_2" transform="translate(-1.83 -1.82)"/><path class="cls-2" d="M246.84,110.31l-.06-.26c-1.28-4.68-5-8.1-10.11-9.38-13.7-3.41-63.77,10.68-73.43,20.65a13.58,13.58,0,0,0-3.62,13.25c1.45,3,55.94,88.73,62.13,98.47,5.5,8.91,11.43,13.4,17.66,13.4a13.83,13.83,0,0,0,4.2-.67c7.78-2.39,11.42-10,10.8-22.73C253.56,203.23,247.6,114.73,246.84,110.31Z" data-name="&lt;Path&gt;" id="_Path_3" transform="translate(-1.83 -1.82)"/><path class="cls-2" d="M281,270.82a16.68,16.68,0,0,1-9.8-7.2c-3.8-5.82-3.68-12.71.31-17.54.54-.7,12.18-16.55,12.18-16.55,27.94-38.22,28.52-39,30.91-40.54,3.92-2.64,8.69-2.86,13.39-.58,11.38,5.55,33.65,38.41,35,51.71l0,.22v.51a13,13,0,0,1-5.52,11.95c-2.4,1.55-2.89,1.87-54.94,14.48C302.59,267.28,287.93,271.79,281,270.82Z" data-name="&lt;Path&gt;" id="_Path_4" transform="translate(-1.83 -1.82)"/><path class="cls-2" d="M360,314.52c-2.24-1.67-2.42-1.81-48.19-16.85-7.37-2.43-18.64-6.15-19.47-6.47-5.84-2.24-12.43-.23-16.8,5.15s-5.11,12.89-1.53,18.33l7.79,12.67c27.24,44.24,28.41,45.92,30.72,47.73a12.19,12.19,0,0,0,7.64,2.65,15,15,0,0,0,5.58-1.13c12-4.77,37-36.65,38.91-49.46C365.33,322,363.66,317.47,360,314.52Z" data-name="&lt;Path&gt;" id="_Path_5" transform="translate(-1.83 -1.82)"/></g></svg>